<?xml version="1.0" encoding="UTF-8"?>
<svg width="24px"
     height="24px"
     viewBox="0 0 24 24"
     version="1.1"
     xmlns="http://www.w3.org/2000/svg">
	<g stroke="none"
	   stroke-width="1"
	   fill="none"
	   fill-rule="evenodd">
		<path d="M11,9 L13,9 L13,6 C13,4.9 12.1,4 11,4 L3,4 L3,11 C3,12.1 3.9,13 5,13 L9,13 L9,21 L11,21 L11,9 Z M5,11 L5,6 L9,6 L9,11 L5,11 Z M19.83,7.16 C19.94,6.8 20,6.41 20,6 C20,3.79 18.21,2 16,2 C13.79,2 12,3.79 12,6 C12,8.21 13.79,10 16,10 C16.59,10 17.16,9.86 17.67,9.63 L20,12 L20,13 L16.05,13 C14.92,13 14,13.92 14,15.05 L14,20.95 C14,22.08 14.92,23 16.05,23 C17.18,23 18.05,22.08 18.05,20.95 L18.05,16 L22,16 L22,11 L19.83,7.16 Z M16,8 C14.9,8 14,7.1 14,6 C14,4.9 14.9,4 16,4 C17.1,4 18,4.9 18,6 C18,7.1 17.1,8 16,8 Z"
		      fill="#222"></path>
	</g>
</svg>
