<?xml version="1.0" encoding="UTF-8"?>
<svg width="24px"
     height="24px"
     viewBox="0 0 24 24"
     version="1.1"
     xmlns="http://www.w3.org/2000/svg">
	<g stroke="none"
	   stroke-width="1"
	   fill="none"
	   fill-rule="evenodd">
		<path d="M17,12 L19,12 L19,10 L17,10 L17,12 Z M13,12 L15,12 L15,10 L13,10 L13,12 Z M17,16 L19,16 L19,14 L17,14 L17,16 Z M13,16 L15,16 L15,14 L13,14 L13,16 Z M9,12 L11,12 L11,10 L9,10 L9,12 Z M9,16 L11,16 L11,14 L9,14 L9,16 Z M5,12 L7,12 L7,10 L5,10 L5,12 Z M5,16 L7,16 L7,14 L5,14 L5,16 Z M20,4 L20,2 L18,2 L18,4 L10,4 L10,2 L8,2 L8,4 L6,4 C4.9,4 4,4.9 4,6 L4,20 C4,21.1 4.9,22 6,22 L18,22 C19.1,22 20,21.1 20,20 L20,6 C20,4.9 19.1,4 18,4 Z M18,20 L6,20 L6,8 L18,8 L18,20 Z"
		      fill="#222"></path>
	</g>
</svg>
