<?xml version="1.0" encoding="UTF-8"?>
<svg width="24px" height="24px" viewBox="0 0 24 24" version="1.1" xmlns="http://www.w3.org/2000/svg">
    <g stroke="none" stroke-width="1" fill="none" fill-rule="evenodd">
        <path d="M13,2 L13,3 L14,3 C14.55,3 15,3.45 15,4 L15,11 C15,11.55 14.55,12 14,12 L13,12 L13,13 C13,14.1 13.9,15 15,15 L16,15 L16,21 L17,21 C17.55,21 18,20.55 18,20 L18,15 L20,15 L20,20 C20,20.55 20.45,21 21,21 L22,21 L22,14 C22,13.45 21.55,13 21,13 L19,13 C19.83,12.67 20.39,11.89 20.39,11 L20.39,4 C20.39,2.34 19.05,1 17.39,1 L14,1 C13.45,1 13,1.45 13,2 Z M6.5,11.5 C7.33,11.5 8,12.17 8,13 L8,17 C8,18.1 7.1,19 6,19 L9,19 L9,22 L5,22 L5,19 C3.9,19 3,18.1 3,17 L3,13 C3,12.17 3.67,11.5 4.5,11.5 L6.5,11.5 Z M6.5,2 C8.43,2 10,3.57 10,5.5 C10,7.43 8.43,9 6.5,9 C4.57,9 3,7.43 3,5.5 C3,3.57 4.57,2 6.5,2 Z" fill="#f76a0c"></path>
    </g>
</svg>